<?xml version="1.0" encoding="UTF-8"?>
<svg id="Calque_1" data-name="Calque 1" xmlns="http://www.w3.org/2000/svg" viewBox="0 0 534.66 419.67">
  <defs>
    <style>
      .cls-1 {
        fill: #0019a8;
      }

      .cls-2 {
        fill: #0023d4;
      }
    </style>
  </defs>
  <path class="cls-1" d="M277.42,25.87h0c0-14.29-11.58-25.87-25.87-25.87H25.87C11.58,0,0,11.58,0,25.87v335.91c0,14.29,11.58,25.87,25.87,25.87h455.13c14.29,0,25.87-11.58,25.87-25.87V77.6c0-14.29-11.58-25.87-25.87-25.87h-177.7c-14.29,0-25.87-11.58-25.87-25.87Z"/>
  <path class="cls-2" d="M534.66,109.63v284.18c0,14.28-11.58,25.86-25.87,25.86H53.66c-14.28,0-25.86-11.58-25.86-25.86V109.63c0-14.28,11.58-25.86,25.86-25.86h455.13c14.29,0,25.87,11.58,25.87,25.86Z"/>
</svg>